<svg width="1366" height="768" viewBox="0 0 1366 768" fill="none" xmlns="http://www.w3.org/2000/svg">
<g clip-path="url(#clip0_242_109)">
<rect width="1366" height="768" fill="url(#paint0_linear_242_109)"/>
<rect width="1366" height="768" fill="url(#paint1_linear_242_109)"/>
<path d="M280.898 323.698L255.401 295.761L262.923 292.025L279.555 311.974L279.825 311.84L274.531 286.258L280.971 283.058L298.167 302.787L298.453 302.645L292.579 277.291L300.1 273.555L306.961 310.75L300.25 314.084L283.471 295.873L283.217 295.999L287.609 320.364L280.898 323.698Z" fill="white" fill-opacity="0.06"/>
<path d="M410.007 312.538L402.551 309.034L429.379 281.463L438.346 285.677L434.223 323.919L426.767 320.415L430.456 291.151L430.199 291.03L410.007 312.538ZM415.62 299.383L433.233 307.66L430.68 313.092L413.068 304.814L415.62 299.383Z" fill="white" fill-opacity="0.06"/>
<path d="M559.054 447.949L552.016 444.642C552.315 443.67 552.433 442.738 552.369 441.845C552.31 440.941 552.088 440.091 551.703 439.296C551.318 438.5 550.782 437.777 550.093 437.127C549.416 436.481 548.606 435.937 547.663 435.494C545.96 434.693 544.277 434.419 542.615 434.671C540.958 434.913 539.404 435.673 537.952 436.953C536.506 438.222 535.246 439.997 534.174 442.279C533.071 444.625 532.493 446.76 532.439 448.684C532.396 450.612 532.815 452.281 533.697 453.689C534.578 455.097 535.849 456.192 537.51 456.972C538.442 457.41 539.362 457.692 540.271 457.818C541.19 457.95 542.071 457.926 542.914 457.746C543.762 457.556 544.55 457.214 545.28 456.72C546.02 456.23 546.677 455.584 547.25 454.781L554.273 458.121C553.381 459.546 552.241 460.789 550.853 461.85C549.481 462.906 547.925 463.698 546.185 464.228C544.461 464.751 542.607 464.939 540.623 464.792C538.655 464.638 536.615 464.066 534.505 463.074C531.569 461.694 529.257 459.796 527.567 457.381C525.888 454.97 524.971 452.191 524.815 449.044C524.67 445.902 525.438 442.542 527.12 438.964C528.806 435.375 530.916 432.639 533.449 430.756C535.982 428.873 538.715 427.816 541.649 427.586C544.587 427.345 547.502 427.904 550.395 429.264C552.302 430.16 553.943 431.258 555.32 432.559C556.707 433.865 557.791 435.33 558.572 436.952C559.358 438.564 559.8 440.295 559.898 442.146C560.007 444.002 559.725 445.937 559.054 447.949Z" fill="white" fill-opacity="0.06"/>
<path d="M765.432 332.781L774.013 336.814L772.684 363.185L773.07 363.366L792.525 345.514L801.106 349.547L785.639 382.457L778.889 379.285L788.957 357.864L788.683 357.736L770.175 374.993L765.579 372.833L767.092 347.49L766.819 347.362L756.714 368.863L749.964 365.691L765.432 332.781Z" fill="white" fill-opacity="0.06"/>
<path d="M406.964 131.691L422.432 98.7806L429.39 102.051L416.619 129.224L430.728 135.855L428.031 141.592L406.964 131.691Z" fill="white" fill-opacity="0.06"/>
<path d="M921.054 101.949L914.016 98.6415C914.315 97.6705 914.433 96.7383 914.369 95.845C914.31 94.9409 914.088 94.0911 913.703 93.2956C913.318 92.5 912.782 91.777 912.093 91.1266C911.416 90.4811 910.606 89.9369 909.663 89.4938C907.96 88.6933 906.277 88.4191 904.615 88.6713C902.958 88.9128 901.404 89.6734 899.952 90.9531C898.506 92.222 897.246 93.9974 896.174 96.2793C895.071 98.6254 894.493 100.76 894.439 102.684C894.396 104.612 894.815 106.281 895.697 107.689C896.578 109.097 897.849 110.192 899.51 110.972C900.442 111.41 901.362 111.692 902.271 111.818C903.19 111.95 904.071 111.926 904.914 111.746C905.762 111.556 906.55 111.214 907.28 110.72C908.02 110.23 908.677 109.584 909.25 108.781L916.273 112.121C915.381 113.546 914.241 114.789 912.853 115.85C911.481 116.906 909.925 117.698 908.185 118.228C906.461 118.751 904.607 118.939 902.623 118.792C900.655 118.638 898.615 118.066 896.505 117.074C893.569 115.694 891.257 113.796 889.567 111.381C887.888 108.97 886.971 106.191 886.815 103.044C886.67 99.902 887.438 96.542 889.12 92.9638C890.806 89.375 892.916 86.639 895.449 84.7558C897.982 82.8727 900.715 81.816 903.649 81.5859C906.587 81.345 909.502 81.9043 912.395 83.2637C914.302 84.1599 915.943 85.2585 917.32 86.5594C918.707 87.8654 919.791 89.3297 920.572 90.9522C921.358 92.5641 921.8 94.2955 921.898 96.1465C922.007 98.0025 921.725 99.9368 921.054 101.949Z" fill="white" fill-opacity="0.06"/>
<path d="M585.054 636.949L578.016 633.642C578.315 632.67 578.433 631.738 578.369 630.845C578.31 629.941 578.088 629.091 577.703 628.296C577.318 627.5 576.782 626.777 576.093 626.127C575.416 625.481 574.606 624.937 573.663 624.494C571.96 623.693 570.277 623.419 568.615 623.671C566.958 623.913 565.404 624.673 563.952 625.953C562.506 627.222 561.246 628.997 560.174 631.279C559.071 633.625 558.493 635.76 558.439 637.684C558.396 639.612 558.815 641.281 559.697 642.689C560.578 644.097 561.849 645.192 563.51 645.972C564.442 646.41 565.362 646.692 566.271 646.818C567.19 646.95 568.071 646.926 568.914 646.746C569.762 646.556 570.55 646.214 571.28 645.72C572.02 645.23 572.677 644.584 573.25 643.781L580.273 647.121C579.381 648.546 578.241 649.789 576.853 650.85C575.481 651.906 573.925 652.698 572.185 653.228C570.461 653.751 568.607 653.939 566.623 653.792C564.655 653.638 562.615 653.066 560.505 652.074C557.569 650.694 555.257 648.796 553.567 646.381C551.888 643.97 550.971 641.191 550.815 638.044C550.67 634.902 551.438 631.542 553.12 627.964C554.806 624.375 556.916 621.639 559.449 619.756C561.982 617.873 564.715 616.816 567.649 616.586C570.587 616.345 573.502 616.904 576.395 618.264C578.302 619.16 579.943 620.258 581.32 621.559C582.707 622.865 583.791 624.33 584.572 625.952C585.358 627.564 585.8 629.295 585.898 631.146C586.007 633.002 585.725 634.937 585.054 636.949Z" fill="white" fill-opacity="0.06"/>
<path d="M130.054 305.949L123.016 302.642C123.315 301.67 123.433 300.738 123.369 299.845C123.31 298.941 123.088 298.091 122.703 297.296C122.318 296.5 121.782 295.777 121.093 295.127C120.416 294.481 119.606 293.937 118.663 293.494C116.96 292.693 115.277 292.419 113.615 292.671C111.958 292.913 110.404 293.673 108.952 294.953C107.506 296.222 106.246 297.997 105.174 300.279C104.071 302.625 103.493 304.76 103.439 306.684C103.396 308.612 103.815 310.281 104.697 311.689C105.578 313.097 106.849 314.192 108.51 314.972C109.442 315.41 110.362 315.692 111.271 315.818C112.19 315.95 113.071 315.926 113.914 315.746C114.762 315.556 115.55 315.214 116.28 314.72C117.02 314.23 117.677 313.584 118.25 312.781L125.273 316.121C124.381 317.546 123.241 318.789 121.853 319.85C120.481 320.906 118.925 321.698 117.185 322.228C115.461 322.751 113.607 322.939 111.623 322.792C109.655 322.638 107.615 322.066 105.505 321.074C102.569 319.694 100.257 317.796 98.5672 315.381C96.8882 312.97 95.9708 310.191 95.8149 307.044C95.6696 303.902 96.4379 300.542 98.1195 296.964C99.8062 293.375 101.916 290.639 104.449 288.756C106.982 286.873 109.715 285.816 112.649 285.586C115.587 285.345 118.502 285.904 121.395 287.264C123.302 288.16 124.943 289.258 126.32 290.559C127.707 291.865 128.791 293.33 129.572 294.952C130.358 296.564 130.8 298.295 130.898 300.146C131.007 302.002 130.725 303.937 130.054 305.949Z" fill="white" fill-opacity="0.06"/>
<path d="M202.054 121.949L195.016 118.642C195.315 117.67 195.433 116.738 195.369 115.845C195.31 114.941 195.088 114.091 194.703 113.296C194.318 112.5 193.782 111.777 193.093 111.127C192.416 110.481 191.606 109.937 190.663 109.494C188.96 108.693 187.277 108.419 185.615 108.671C183.958 108.913 182.404 109.673 180.952 110.953C179.506 112.222 178.246 113.997 177.174 116.279C176.071 118.625 175.493 120.76 175.439 122.684C175.396 124.612 175.815 126.281 176.697 127.689C177.578 129.097 178.849 130.192 180.51 130.972C181.442 131.41 182.362 131.692 183.271 131.818C184.19 131.95 185.071 131.926 185.914 131.746C186.762 131.556 187.55 131.214 188.28 130.72C189.02 130.23 189.677 129.584 190.25 128.781L197.273 132.121C196.381 133.546 195.241 134.789 193.853 135.85C192.481 136.906 190.925 137.698 189.185 138.228C187.461 138.751 185.607 138.939 183.623 138.792C181.655 138.638 179.615 138.066 177.505 137.074C174.569 135.694 172.257 133.796 170.567 131.381C168.888 128.97 167.971 126.191 167.815 123.044C167.67 119.902 168.438 116.542 170.12 112.964C171.806 109.375 173.916 106.639 176.449 104.756C178.982 102.873 181.715 101.816 184.649 101.586C187.587 101.345 190.502 101.904 193.395 103.264C195.302 104.16 196.943 105.258 198.32 106.559C199.707 107.865 200.791 109.33 201.572 110.952C202.358 112.564 202.8 114.295 202.898 116.146C203.007 118.002 202.725 119.937 202.054 121.949Z" fill="white" fill-opacity="0.06"/>
<path d="M1271.05 392.949L1264.02 389.642C1264.32 388.67 1264.43 387.738 1264.37 386.845C1264.31 385.941 1264.09 385.091 1263.7 384.296C1263.32 383.5 1262.78 382.777 1262.09 382.127C1261.42 381.481 1260.61 380.937 1259.66 380.494C1257.96 379.693 1256.28 379.419 1254.62 379.671C1252.96 379.913 1251.4 380.673 1249.95 381.953C1248.51 383.222 1247.25 384.997 1246.17 387.279C1245.07 389.625 1244.49 391.76 1244.44 393.684C1244.4 395.612 1244.82 397.281 1245.7 398.689C1246.58 400.097 1247.85 401.192 1249.51 401.972C1250.44 402.41 1251.36 402.692 1252.27 402.818C1253.19 402.95 1254.07 402.926 1254.91 402.746C1255.76 402.556 1256.55 402.214 1257.28 401.72C1258.02 401.23 1258.68 400.584 1259.25 399.781L1266.27 403.121C1265.38 404.546 1264.24 405.789 1262.85 406.85C1261.48 407.906 1259.92 408.698 1258.19 409.228C1256.46 409.751 1254.61 409.939 1252.62 409.792C1250.65 409.638 1248.62 409.066 1246.5 408.074C1243.57 406.694 1241.26 404.796 1239.57 402.381C1237.89 399.97 1236.97 397.191 1236.81 394.044C1236.67 390.902 1237.44 387.542 1239.12 383.964C1240.81 380.375 1242.92 377.639 1245.45 375.756C1247.98 373.873 1250.72 372.816 1253.65 372.586C1256.59 372.345 1259.5 372.904 1262.39 374.264C1264.3 375.16 1265.94 376.258 1267.32 377.559C1268.71 378.865 1269.79 380.33 1270.57 381.952C1271.36 383.564 1271.8 385.295 1271.9 387.146C1272.01 389.002 1271.73 390.937 1271.05 392.949Z" fill="white" fill-opacity="0.06"/>
<path d="M1158.05 157.949L1151.02 154.642C1151.32 153.67 1151.43 152.738 1151.37 151.845C1151.31 150.941 1151.09 150.091 1150.7 149.296C1150.32 148.5 1149.78 147.777 1149.09 147.127C1148.42 146.481 1147.61 145.937 1146.66 145.494C1144.96 144.693 1143.28 144.419 1141.62 144.671C1139.96 144.913 1138.4 145.673 1136.95 146.953C1135.51 148.222 1134.25 149.997 1133.17 152.279C1132.07 154.625 1131.49 156.76 1131.44 158.684C1131.4 160.612 1131.82 162.281 1132.7 163.689C1133.58 165.097 1134.85 166.192 1136.51 166.972C1137.44 167.41 1138.36 167.692 1139.27 167.818C1140.19 167.95 1141.07 167.926 1141.91 167.746C1142.76 167.556 1143.55 167.214 1144.28 166.72C1145.02 166.23 1145.68 165.584 1146.25 164.781L1153.27 168.121C1152.38 169.546 1151.24 170.789 1149.85 171.85C1148.48 172.906 1146.92 173.698 1145.19 174.228C1143.46 174.751 1141.61 174.939 1139.62 174.792C1137.65 174.638 1135.62 174.066 1133.5 173.074C1130.57 171.694 1128.26 169.796 1126.57 167.381C1124.89 164.97 1123.97 162.191 1123.81 159.044C1123.67 155.902 1124.44 152.542 1126.12 148.964C1127.81 145.375 1129.92 142.639 1132.45 140.756C1134.98 138.873 1137.72 137.816 1140.65 137.586C1143.59 137.345 1146.5 137.904 1149.39 139.264C1151.3 140.16 1152.94 141.258 1154.32 142.559C1155.71 143.865 1156.79 145.33 1157.57 146.952C1158.36 148.564 1158.8 150.295 1158.9 152.146C1159.01 154.002 1158.73 155.937 1158.05 157.949Z" fill="white" fill-opacity="0.06"/>
<path d="M370.39 635.051L354.923 667.961L347.964 664.691L363.432 631.781L370.39 635.051Z" fill="white" fill-opacity="0.06"/>
<path d="M745.964 678.691L761.432 645.781L768.39 649.051L762.008 662.629L776.133 669.268L782.515 655.689L789.457 658.952L773.99 691.862L767.048 688.599L773.437 675.005L759.312 668.366L752.923 681.961L745.964 678.691Z" fill="white" fill-opacity="0.06"/>
<path d="M161.631 506.174L149.964 500.691L165.432 467.781L177.194 473.309C180.505 474.865 183.045 476.863 184.814 479.303C186.589 481.733 187.543 484.477 187.675 487.534C187.819 490.597 187.087 493.837 185.481 497.254C183.87 500.682 181.837 503.324 179.383 505.178C176.939 507.038 174.203 508.06 171.173 508.245C168.154 508.435 164.973 507.745 161.631 506.174ZM159.724 497.999L164.144 500.076C166.2 501.043 168.102 501.492 169.848 501.423C171.609 501.348 173.206 500.706 174.638 499.495C176.086 498.279 177.386 496.445 178.539 493.991C179.682 491.56 180.257 489.404 180.264 487.524C180.282 485.649 179.761 484.017 178.7 482.629C177.639 481.241 176.08 480.064 174.023 479.097L169.588 477.013L159.724 497.999Z" fill="white" fill-opacity="0.06"/>
<path d="M628.964 166.691L644.432 133.781L666.222 144.022L663.526 149.758L648.693 142.788L645.008 150.629L658.394 156.921L655.698 162.657L642.312 156.366L635.923 169.961L628.964 166.691Z" fill="white" fill-opacity="0.06"/>
<path d="M1065.25 577.675C1065.4 576.787 1065.41 575.947 1065.28 575.156C1065.16 574.354 1064.9 573.606 1064.51 572.911C1064.13 572.211 1063.62 571.572 1062.98 570.994C1062.35 570.422 1061.58 569.924 1060.68 569.501C1059 568.711 1057.32 568.434 1055.65 568.67C1054 568.912 1052.44 569.665 1050.98 570.928C1049.53 572.182 1048.27 573.955 1047.19 576.247C1046.11 578.54 1045.54 580.653 1045.48 582.587C1045.43 584.522 1045.83 586.211 1046.71 587.657C1047.59 589.092 1048.9 590.217 1050.64 591.032C1052.21 591.773 1053.69 592.126 1055.06 592.092C1056.46 592.053 1057.69 591.658 1058.76 590.907C1059.84 590.16 1060.72 589.085 1061.38 587.682L1062.69 588.555L1054.21 584.568L1056.67 579.329L1070.44 585.801L1068.49 589.947C1067.13 592.84 1065.35 595.038 1063.16 596.542C1060.96 598.036 1058.53 598.842 1055.86 598.96C1053.19 599.067 1050.48 598.471 1047.71 597.172C1044.63 595.722 1042.24 593.768 1040.54 591.31C1038.85 588.841 1037.94 586.04 1037.82 582.909C1037.71 579.771 1038.47 576.467 1040.1 572.996C1041.36 570.328 1042.86 568.131 1044.61 566.405C1046.38 564.673 1048.31 563.408 1050.4 562.611C1052.49 561.813 1054.64 561.472 1056.86 561.588C1059.09 561.703 1061.28 562.272 1063.46 563.294C1065.32 564.17 1066.93 565.259 1068.28 566.56C1069.64 567.851 1070.7 569.282 1071.48 570.851C1072.27 572.426 1072.74 574.08 1072.9 575.813C1073.06 577.535 1072.87 579.264 1072.32 580.998L1065.25 577.675Z" fill="white" fill-opacity="0.06"/>
<path d="M907.964 309.691L923.432 276.781L936.609 282.974C939.03 284.111 940.88 285.419 942.161 286.897C943.441 288.375 944.189 289.943 944.404 291.601C944.624 293.247 944.346 294.896 943.571 296.546C942.967 297.831 942.178 298.84 941.206 299.574C940.239 300.296 939.159 300.757 937.967 300.955C936.791 301.148 935.569 301.103 934.302 300.822L934.151 301.143C935.379 301.786 936.386 302.691 937.172 303.858C937.968 305.03 938.432 306.366 938.564 307.867C938.701 309.357 938.389 310.911 937.629 312.528C936.808 314.274 935.642 315.629 934.129 316.593C932.633 317.55 930.857 318.03 928.803 318.033C926.748 318.035 924.489 317.457 922.025 316.299L907.964 309.691ZM917.596 307.272L923.269 309.938C925.208 310.85 926.795 311.145 928.032 310.823C929.274 310.491 930.186 309.704 930.77 308.461C931.198 307.551 931.356 306.644 931.244 305.741C931.133 304.838 930.763 303.998 930.135 303.219C929.518 302.445 928.652 301.796 927.538 301.272L921.704 298.531L917.596 307.272ZM923.917 293.822L929.076 296.247C930.029 296.695 930.953 296.926 931.849 296.942C932.76 296.951 933.576 296.746 934.296 296.326C935.027 295.911 935.597 295.27 936.005 294.402C936.564 293.213 936.591 292.055 936.087 290.929C935.594 289.808 934.576 288.885 933.033 288.16L927.746 285.675L923.917 293.822Z" fill="white" fill-opacity="0.06"/>
</g>
<defs>
<linearGradient id="paint0_linear_242_109" x1="683" y1="0" x2="683" y2="768" gradientUnits="userSpaceOnUse">
<stop stop-color="#8652CD"/>
<stop offset="1" stop-color="#040206"/>
</linearGradient>
<linearGradient id="paint1_linear_242_109" x1="683" y1="0" x2="683" y2="768" gradientUnits="userSpaceOnUse">
<stop stop-opacity="0.79"/>
<stop offset="1" stop-color="#040206"/>
</linearGradient>
<clipPath id="clip0_242_109">
<rect width="1366" height="768" fill="white"/>
</clipPath>
</defs>
</svg>
