<svg width="572" height="1180" viewBox="0 0 572 1180" fill="none" xmlns="http://www.w3.org/2000/svg">
<g clip-path="url(#clip0_248_109)">
<rect width="572" height="1180" fill="url(#paint0_linear_248_109)"/>
<g clip-path="url(#clip1_248_109)">
<rect width="572" height="1198" transform="translate(0 -18)" fill="url(#paint1_linear_248_109)"/>
<path d="M280.898 305.698L255.401 277.761L262.923 274.025L279.555 293.974L279.825 293.84L274.531 268.258L280.971 265.058L298.167 284.787L298.453 284.645L292.579 259.291L300.1 255.555L306.961 292.75L300.25 296.084L283.471 277.873L283.217 277.999L287.609 302.364L280.898 305.698Z" fill="white" fill-opacity="0.06"/>
<path d="M410.007 294.538L402.551 291.034L429.379 263.463L438.346 267.677L434.223 305.919L426.767 302.415L430.456 273.151L430.199 273.03L410.007 294.538ZM415.62 281.383L433.233 289.66L430.68 295.092L413.068 286.814L415.62 281.383Z" fill="white" fill-opacity="0.06"/>
<path d="M559.054 429.949L552.016 426.642C552.315 425.67 552.433 424.738 552.369 423.845C552.31 422.941 552.088 422.091 551.703 421.296C551.318 420.5 550.782 419.777 550.093 419.127C549.416 418.481 548.606 417.937 547.663 417.494C545.96 416.693 544.277 416.419 542.615 416.671C540.958 416.913 539.404 417.673 537.952 418.953C536.506 420.222 535.246 421.997 534.174 424.279C533.071 426.625 532.493 428.76 532.439 430.684C532.396 432.612 532.815 434.281 533.697 435.689C534.578 437.097 535.849 438.192 537.51 438.972C538.442 439.41 539.362 439.692 540.271 439.818C541.19 439.95 542.071 439.926 542.914 439.746C543.762 439.556 544.55 439.214 545.28 438.72C546.02 438.23 546.677 437.584 547.25 436.781L554.273 440.121C553.381 441.546 552.241 442.789 550.853 443.85C549.481 444.906 547.925 445.698 546.185 446.228C544.461 446.751 542.607 446.939 540.623 446.792C538.655 446.638 536.615 446.066 534.505 445.074C531.569 443.694 529.257 441.796 527.567 439.381C525.888 436.97 524.971 434.191 524.815 431.044C524.67 427.902 525.438 424.542 527.12 420.964C528.806 417.375 530.916 414.639 533.449 412.756C535.982 410.873 538.715 409.816 541.649 409.586C544.587 409.345 547.502 409.904 550.395 411.264C552.302 412.16 553.943 413.258 555.32 414.559C556.707 415.865 557.791 417.33 558.572 418.952C559.358 420.564 559.8 422.295 559.898 424.146C560.007 426.002 559.725 427.937 559.054 429.949Z" fill="white" fill-opacity="0.06"/>
<path d="M406.964 113.691L422.432 80.7806L429.39 84.0508L416.619 111.224L430.728 117.855L428.031 123.592L406.964 113.691Z" fill="white" fill-opacity="0.06"/>
<path d="M585.054 618.949L578.016 615.642C578.315 614.67 578.433 613.738 578.369 612.845C578.31 611.941 578.088 611.091 577.703 610.296C577.318 609.5 576.782 608.777 576.093 608.127C575.416 607.481 574.606 606.937 573.663 606.494C571.96 605.693 570.277 605.419 568.615 605.671C566.958 605.913 565.404 606.673 563.952 607.953C562.506 609.222 561.246 610.997 560.174 613.279C559.071 615.625 558.493 617.76 558.439 619.684C558.396 621.612 558.815 623.281 559.697 624.689C560.578 626.097 561.849 627.192 563.51 627.972C564.442 628.41 565.362 628.692 566.271 628.818C567.19 628.95 568.071 628.926 568.914 628.746C569.762 628.556 570.55 628.214 571.28 627.72C572.02 627.23 572.677 626.584 573.25 625.781L580.273 629.121C579.381 630.546 578.241 631.789 576.853 632.85C575.481 633.906 573.925 634.698 572.185 635.228C570.461 635.751 568.607 635.939 566.623 635.792C564.655 635.638 562.615 635.066 560.505 634.074C557.569 632.694 555.257 630.796 553.567 628.381C551.888 625.97 550.971 623.191 550.815 620.044C550.67 616.902 551.438 613.542 553.12 609.964C554.806 606.375 556.916 603.639 559.449 601.756C561.982 599.873 564.715 598.816 567.649 598.586C570.587 598.345 573.502 598.904 576.395 600.264C578.302 601.16 579.943 602.258 581.32 603.559C582.707 604.865 583.791 606.33 584.572 607.952C585.358 609.564 585.8 611.295 585.898 613.146C586.007 615.002 585.725 616.937 585.054 618.949Z" fill="white" fill-opacity="0.06"/>
<path d="M130.054 287.949L123.016 284.642C123.315 283.67 123.433 282.738 123.369 281.845C123.31 280.941 123.088 280.091 122.703 279.296C122.318 278.5 121.782 277.777 121.093 277.127C120.416 276.481 119.606 275.937 118.663 275.494C116.96 274.693 115.277 274.419 113.615 274.671C111.958 274.913 110.404 275.673 108.952 276.953C107.506 278.222 106.246 279.997 105.174 282.279C104.071 284.625 103.493 286.76 103.439 288.684C103.396 290.612 103.815 292.281 104.697 293.689C105.578 295.097 106.849 296.192 108.51 296.972C109.442 297.41 110.362 297.692 111.271 297.818C112.19 297.95 113.071 297.926 113.914 297.746C114.762 297.556 115.55 297.214 116.28 296.72C117.02 296.23 117.677 295.584 118.25 294.781L125.273 298.121C124.381 299.546 123.241 300.789 121.853 301.85C120.481 302.906 118.925 303.698 117.185 304.228C115.461 304.751 113.607 304.939 111.623 304.792C109.655 304.638 107.615 304.066 105.505 303.074C102.569 301.694 100.257 299.796 98.5672 297.381C96.8882 294.97 95.9708 292.191 95.8149 289.044C95.6696 285.902 96.4379 282.542 98.1195 278.964C99.8062 275.375 101.916 272.639 104.449 270.756C106.982 268.873 109.715 267.816 112.649 267.586C115.587 267.345 118.502 267.904 121.395 269.264C123.302 270.16 124.943 271.258 126.32 272.559C127.707 273.865 128.791 275.33 129.572 276.952C130.358 278.564 130.8 280.295 130.898 282.146C131.007 284.002 130.725 285.937 130.054 287.949Z" fill="white" fill-opacity="0.06"/>
<path d="M202.054 103.949L195.016 100.642C195.315 99.6705 195.433 98.7383 195.369 97.845C195.31 96.9409 195.088 96.0911 194.703 95.2956C194.318 94.5 193.782 93.777 193.093 93.1266C192.416 92.4811 191.606 91.9369 190.663 91.4938C188.96 90.6933 187.277 90.4191 185.615 90.6713C183.958 90.9128 182.404 91.6734 180.952 92.9531C179.506 94.222 178.246 95.9974 177.174 98.2793C176.071 100.625 175.493 102.76 175.439 104.684C175.396 106.612 175.815 108.281 176.697 109.689C177.578 111.097 178.849 112.192 180.51 112.972C181.442 113.41 182.362 113.692 183.271 113.818C184.19 113.95 185.071 113.926 185.914 113.746C186.762 113.556 187.55 113.214 188.28 112.72C189.02 112.23 189.677 111.584 190.25 110.781L197.273 114.121C196.381 115.546 195.241 116.789 193.853 117.85C192.481 118.906 190.925 119.698 189.185 120.228C187.461 120.751 185.607 120.939 183.623 120.792C181.655 120.638 179.615 120.066 177.505 119.074C174.569 117.694 172.257 115.796 170.567 113.381C168.888 110.97 167.971 108.191 167.815 105.044C167.67 101.902 168.438 98.542 170.12 94.9638C171.806 91.375 173.916 88.639 176.449 86.7558C178.982 84.8727 181.715 83.816 184.649 83.5859C187.587 83.345 190.502 83.9043 193.395 85.2637C195.302 86.1599 196.943 87.2585 198.32 88.5594C199.707 89.8654 200.791 91.3297 201.572 92.9522C202.358 94.5641 202.8 96.2955 202.898 98.1465C203.007 100.002 202.725 101.937 202.054 103.949Z" fill="white" fill-opacity="0.06"/>
<path d="M370.39 617.051L354.923 649.961L347.964 646.691L363.432 613.781L370.39 617.051Z" fill="white" fill-opacity="0.06"/>
<path d="M161.631 488.174L149.964 482.691L165.432 449.781L177.194 455.309C180.505 456.865 183.045 458.863 184.814 461.303C186.589 463.733 187.543 466.477 187.675 469.534C187.819 472.597 187.087 475.837 185.481 479.254C183.87 482.682 181.837 485.324 179.383 487.178C176.939 489.038 174.203 490.06 171.173 490.245C168.154 490.435 164.973 489.745 161.631 488.174ZM159.724 479.999L164.144 482.076C166.2 483.043 168.102 483.492 169.848 483.423C171.609 483.348 173.206 482.706 174.638 481.495C176.086 480.279 177.386 478.445 178.539 475.991C179.682 473.56 180.257 471.404 180.264 469.524C180.282 467.649 179.761 466.017 178.7 464.629C177.639 463.241 176.08 462.064 174.023 461.097L169.588 459.013L159.724 479.999Z" fill="white" fill-opacity="0.06"/>
</g>
</g>
<defs>
<linearGradient id="paint0_linear_248_109" x1="286" y1="0" x2="286" y2="1180" gradientUnits="userSpaceOnUse">
<stop stop-color="#8652CD"/>
<stop offset="1" stop-color="#040206"/>
</linearGradient>
<linearGradient id="paint1_linear_248_109" x1="286" y1="0" x2="286" y2="1198" gradientUnits="userSpaceOnUse">
<stop stop-opacity="0.79"/>
<stop offset="1" stop-color="#040206"/>
</linearGradient>
<clipPath id="clip0_248_109">
<rect width="572" height="1180" fill="white"/>
</clipPath>
<clipPath id="clip1_248_109">
<rect width="572" height="1198" fill="white" transform="translate(0 -18)"/>
</clipPath>
</defs>
</svg>
