<svg width="32" height="32" viewBox="0 0 32 32" fill="none" xmlns="http://www.w3.org/2000/svg">
<rect x="7" y="8" width="24" height="22" fill="#BB8AFF"/>
<path d="M13.9682 26L10.0143 12.1818H13.2057L15.493 21.783H15.6077L18.1312 12.1818H20.8638L23.3805 21.8033H23.5019L25.7892 12.1818H28.9806L25.0268 26H22.1795L19.5481 16.9656H19.4401L16.8155 26H13.9682Z" fill="#6BEC8E"/>
<path d="M10.6021 6.63778C10.5453 6.06487 10.3014 5.61979 9.87056 5.30256C9.43969 4.98532 8.85494 4.8267 8.1163 4.8267C7.61441 4.8267 7.19064 4.89773 6.84499 5.03977C6.49935 5.17708 6.2342 5.36884 6.04954 5.61506C5.86961 5.86127 5.77965 6.14062 5.77965 6.45312C5.77018 6.71354 5.82463 6.94081 5.943 7.13494C6.06611 7.32907 6.2342 7.49716 6.44727 7.6392C6.66033 7.77651 6.90655 7.89725 7.1859 8.00142C7.46526 8.10085 7.76355 8.18608 8.08079 8.2571L9.38761 8.5696C10.0221 8.71165 10.6045 8.90104 11.1348 9.13778C11.6651 9.37453 12.1243 9.66572 12.5126 10.0114C12.9009 10.357 13.2015 10.7642 13.4146 11.233C13.6324 11.7017 13.7437 12.2391 13.7484 12.8452C13.7437 13.7353 13.5164 14.5071 13.0666 15.1605C12.6215 15.8092 11.9776 16.3134 11.1348 16.6733C10.2967 17.0284 9.28581 17.206 8.1021 17.206C6.92785 17.206 5.90513 17.026 5.03391 16.6662C4.16744 16.3063 3.49035 15.7737 3.00266 15.0682C2.51971 14.358 2.26639 13.4796 2.24272 12.4332H5.21857C5.25172 12.9209 5.39139 13.3281 5.63761 13.6548C5.88855 13.9768 6.22236 14.2206 6.63903 14.3864C7.06043 14.5473 7.53628 14.6278 8.06658 14.6278C8.58742 14.6278 9.0396 14.5521 9.42312 14.4006C9.81138 14.2491 10.112 14.0384 10.3251 13.7685C10.5382 13.4986 10.6447 13.1884 10.6447 12.8381C10.6447 12.5114 10.5476 12.2367 10.3535 12.0142C10.1641 11.7917 9.88477 11.6023 9.51545 11.446C9.15086 11.2898 8.70342 11.1477 8.17312 11.0199L6.58931 10.6222C5.36299 10.3239 4.39471 9.85748 3.68448 9.22301C2.97425 8.58854 2.62151 7.7339 2.62624 6.65909C2.62151 5.77841 2.85588 5.009 3.32937 4.35085C3.80759 3.69271 4.46336 3.17898 5.2967 2.80966C6.13003 2.44034 7.077 2.25568 8.13761 2.25568C9.21715 2.25568 10.1594 2.44034 10.9643 2.80966C11.774 3.17898 12.4037 3.69271 12.8535 4.35085C13.3033 5.009 13.5353 5.77131 13.5495 6.63778H10.6021Z" fill="#F2AA3D"/>
</svg>
